<?xml version="1.0" encoding="UTF-8"?>
<svg xmlns="http://www.w3.org/2000/svg" viewBox="0 0 24 24" fill="none">
  <path d="M12 2C6.48 2 2 6.48 2 12C2 17.52 6.48 22 12 22C17.52 22 22 17.52 22 12C22 6.48 17.52 2 12 2ZM16.64 15.85C16.46 16.32 15.62 16.78 15.62 16.78C15.28 16.95 14.83 17 14.46 16.86C14.09 16.71 13.55 16.51 12.93 16.19C10.84 15.13 9.42 13.08 9.27 12.87C9.12 12.66 8.14 11.36 8.14 10C8.14 8.64 8.83 7.97 9.06 7.72C9.29 7.47 9.56 7.41 9.73 7.41L10.24 7.42C10.41 7.43 10.65 7.35 10.89 7.86C11.13 8.37 11.64 9.73 11.71 9.87C11.78 10.01 11.83 10.17 11.73 10.36C11.28 11.21 10.79 11.16 11.07 11.62C12.06 13.19 13.19 13.85 14.54 14.45C14.81 14.57 14.97 14.55 15.16 14.32C15.35 14.09 15.84 13.51 16.05 13.24C16.27 12.97 16.49 13.02 16.77 13.13C17.06 13.24 18.41 13.9 18.73 14.06C19.04 14.22 19.24 14.3 19.31 14.44C19.38 14.58 19.38 15.37 19.2 15.84L16.64 15.85Z" fill="#25D366"/>
</svg>
